Coordinates
version=1
nRows=8
nColumns=63
inDegrees=yes

Units are S.I. units (second, meters, Newtons, ...)
If the header above contains a line with 'inDegrees', this indicates whether rotational values are in degrees (yes) or radians (no).

endheader
time	pelvis_tilt	pelvis_list	pelvis_rotation	pelvis_tx	pelvis_ty	pelvis_tz	hip_flexion_r	hip_adduction_r	hip_rotation_r	knee_angle_r	knee_angle_r_beta	ankle_angle_r	subtalar_angle_r	mtp_angle_r	hip_flexion_l	hip_adduction_l	hip_rotation_l	knee_angle_l	knee_angle_l_beta	ankle_angle_l	subtalar_angle_l	mtp_angle_l	L5_S1_Flex_Ext	L5_S1_Lat_Bending	L5_S1_axial_rotation	L4_L5_Flex_Ext	L4_L5_Lat_Bending	L4_L5_axial_rotation	L3_L4_Flex_Ext	L3_L4_Lat_Bending	L3_L4_axial_rotation	L2_L3_Flex_Ext	L2_L3_Lat_Bending	L2_L3_axial_rotation	L1_L2_Flex_Ext	L1_L2_Lat_Bending	L1_L2_axial_rotation	L1_T12_Flex_Ext	L1_T12_Lat_Bending	L1_T12_axial_rotation	Abs_r3	Abs_r2	Abs_r1	Abs_t1	Abs_t2	neck_flexion	neck_bending	neck_rotation	arm_flex_r	arm_add_r	arm_rot_r	elbow_flex_r	pro_sup_r	wrist_flex_r	wrist_dev_r	arm_flex_l	arm_add_l	arm_rot_l	elbow_flex_l	pro_sup_l	wrist_flex_l	wrist_dev_l
      3.30508475	      0.73735780	     -2.13036824	     93.54445954	      0.02618188	      0.86226635	      0.72918393	      9.01555073	     -1.70658196	      2.85080966	     18.30578259	      0.31949618	     36.69107286	      0.01561388	      0.00000000	      2.19994763	      1.41886114	      4.14477950	      5.50660572	      0.09610840	     31.62682542	     -3.74543444	      0.00000000	      0.03099224	      0.04868523	      1.89850455	      0.05755568	      0.06475135	      2.01716108	      0.05091714	      0.11837326	      2.01716108	      0.03542103	      0.11837326	      1.66119148	      0.02877939	      0.09927891	      1.54253495	      0.01770896	      0.07541341	      1.42387841	      0.22137444	      0.55073701	     10.55891276	      0.00000000	      0.00000000	     13.81665360	     -2.99602500	    -11.99334910	     16.71395312	    -32.04339373	     13.06668941	     48.13286946	     47.64068097	      5.00981154	      7.40448024	     25.04151746	    -28.04088003	     13.07007399	     35.93993150	     69.46401066	      5.42666098	     -0.33607525
      3.32203390	      0.73172487	     -2.49482556	     93.61265831	      0.02690094	      0.86060175	      0.72957172	      9.11430385	     -1.74878406	      2.48276263	     17.75332526	      0.30985398	     36.94632394	      0.60658835	      0.00000000	      2.71857446	      1.39633548	      4.46505645	      5.65725060	      0.09873765	     31.96361081	     -3.95121315	      0.00000000	      0.05726848	      0.01728274	      1.93457273	      0.10635330	      0.02298604	      2.05548352	      0.09408639	      0.04202125	      2.05548352	      0.06545215	      0.04202125	      1.69275114	      0.05317951	      0.03524296	      1.57184034	      0.03272321	      0.02677096	      1.45092955	      0.40906303	      0.19550577	     10.75951313	      0.00000000	      0.00000000	     14.52805492	     -2.68573534	    -13.05645055	     17.03431461	    -31.30349365	     20.79617367	     45.14922874	     41.00460626	      5.67968887	      7.30461681	     23.21783821	    -26.40683106	     13.94032495	     35.98874979	     70.90813733	      3.77152120	     -2.67107286
      3.33898305	      0.63122547	     -2.85872819	     93.64514178	      0.02750830	      0.85901385	      0.73010618	      9.20071478	     -1.89157660	      2.16617238	     17.18805654	      0.29998818	     37.13861373	      1.17305939	      0.00000000	      3.22388158	      1.48824551	      4.83315433	      5.77142569	      0.10073038	     32.18706886	     -4.25618353	      0.00000000	      0.07587588	     -0.01667489	      1.98957033	      0.14090909	     -0.02217761	      2.11391848	      0.12465648	     -0.04054334	      2.11391848	      0.08671854	     -0.04054334	      1.74087404	      0.07045834	     -0.03400344	      1.61652590	      0.04335548	     -0.02582941	      1.49217775	      0.54197381	     -0.18862973	     11.06539332	      0.00000000	      0.00000000	     15.31170229	     -2.65209432	    -13.91674619	     16.51164407	    -30.11226797	     26.14893738	     43.39372427	     37.94403764	      5.47249736	      6.67745713	     21.09624004	    -24.61484024	     13.41661995	     36.32712270	     74.68997827	      2.21668472	     -3.82963682
      3.35593220	      0.56842370	     -3.13178341	     93.82430725	      0.02786735	      0.85767067	      0.73071736	      9.10069720	     -1.95262558	      2.11165633	     16.49273979	      0.28785261	     37.09608137	      1.22521264	      0.00000000	      3.66700720	      1.53946466	      5.07768828	      5.92504965	      0.10341162	     32.45917569	     -4.21798177	      0.00000000	      0.08437986	     -0.03955060	      2.04719229	      0.15670183	     -0.05260229	      2.17514181	      0.13862767	     -0.09616332	      2.17514181	      0.09643774	     -0.09616332	      1.79129326	      0.07835513	     -0.08065157	      1.66334374	      0.04821465	     -0.06126387	      1.53539422	      0.60271687	     -0.44740425	     11.38586938	      0.00000000	      0.00000000	     15.98249762	     -2.78174994	    -14.68192174	     15.20165565	    -28.87215533	     29.36773021	     42.52213327	     38.49978900	      5.03542362	      4.53954677	     19.44332668	    -23.14851054	     14.80132474	     36.36715369	     78.18144773	     -0.47322951	     -4.44431541
      3.37288136	      0.58224693	     -3.31825448	     93.99385152	      0.02796316	      0.85656840	      0.73135176	      8.87968677	     -1.89755271	      2.38723357	     15.75078342	      0.27490303	     36.80023549	      0.90075016	      0.00000000	      4.02759868	      1.52531024	      5.19504312	      6.09978821	      0.10646139	     32.72317692	     -4.09719641	      0.00000000	      0.08970817	     -0.04243705	      2.04865773	      0.16659704	     -0.05644128	      2.17669883	      0.14738155	     -0.10318144	      2.17669883	      0.10252746	     -0.10318144	      1.79257551	      0.08330300	     -0.08653763	      1.66453440	      0.05125925	     -0.06573499	      1.53649330	      0.64077646	     -0.48005639	     11.39401968	      0.00000000	      0.00000000	     16.45837978	     -2.86095318	    -14.70379554	     14.09122974	    -27.91074401	     33.16649310	     41.94220446	     41.02851268	      4.36508097	      0.68862313	     17.65944738	    -21.86057703	     16.02830856	     36.47232055	     82.53217213	     -3.18277548	     -4.39351999
      3.38983051	      0.68848134	     -3.39651798	     94.33583832	      0.02775169	      0.85571513	      0.73197917	      8.49631343	     -1.63928844	      3.49315610	     14.95972851	      0.26109652	     36.14957576	     -0.70410325	      0.00000000	      4.31225626	      1.40836814	      5.09531722	      6.32840239	      0.11045146	     33.09256116	     -3.47711954	      0.00000000	      0.08694509	     -0.02765702	      2.00656511	      0.16146573	     -0.03678384	      2.13197543	      0.14284209	     -0.06724528	      2.13197543	      0.09936954	     -0.06724528	      1.75574447	      0.08073721	     -0.05639820	      1.63033415	      0.04968042	     -0.04284073	      1.50492383	      0.62104009	     -0.31286175	     11.15991317	      0.00000000	      0.00000000	     16.81998875	     -2.96676684	    -14.33021094	     12.69648771	    -27.01369900	     34.95418676	     41.39863244	     57.84691457	      1.95100656	     -5.35924515	     16.21242627	    -20.85617588	     18.64676121	     36.32896501	     85.03537098	     -5.28228722	     -4.33814992
      3.40677966	      0.87507685	     -3.36150675	     94.71656032	      0.02715249	      0.85509483	      0.73260368	      8.01981309	     -1.30681405	      4.77633860	     14.21972665	      0.24818105	     35.41063305	     -2.52507656	      0.00000000	      4.48392911	      1.23535815	      5.12385757	      6.55980342	      0.11449017	     33.42290681	     -3.06677886	      0.00000000	      0.08038606	      0.00234081	      1.91223792	      0.14928494	      0.00311327	      2.03175279	      0.13206625	      0.00569144	      2.03175279	      0.09187322	      0.00569144	      1.67320818	      0.07464649	      0.00477337	      1.55369331	      0.04593259	      0.00362591	      1.43417844	      0.57418956	      0.02647966	     10.63529363	      0.00000000	      0.00000000	     16.92931419	     -2.95690603	    -13.61512770	     12.12396862	    -26.88559014	     38.45168084	     41.41762038	     83.61422545	     -5.59668641	    -10.80613174	     14.94005023	    -20.16862718	     23.15006880	     35.77131482	     85.50971734	     -7.78914823	     -6.28888523
      3.42372881	      0.98466026	     -3.32211252	     95.14583370	      0.02653780	      0.85459594	      0.73307313	      7.63297554	     -1.11689785	      5.60931237	     13.67500335	      0.23867383	     34.87508461	     -3.83695336	      0.00000000	      4.60656453	      1.15428401	      5.33940887	      6.74425658	      0.11770948	     33.66239883	     -2.85639126	      0.00000000	      0.07374024	      0.01343523	      1.80488792	      0.13694300	      0.01786886	      1.91769342	      0.12114784	      0.03266642	      1.91769342	      0.08427772	      0.03266642	      1.57927693	      0.06847519	      0.02739712	      1.46647144	      0.04213517	      0.02081117	      1.35366594	      0.52671915	      0.15198202	     10.03824516	      0.00000000	      0.00000000	     17.05210842	     -2.70007851	    -13.17856472	     11.61446155	    -26.83307353	     43.33353084	     41.73425284	     86.89984895	     -8.16934517	    -14.07204309	     13.75172084	    -19.45159458	     28.26527246	     34.55304294	     86.06974445	    -10.67994118	    -11.27027013
